<?xml version="1.0" encoding="UTF-8" standalone="no"?>
<svg
	xmlns="http://www.w3.org/2000/svg"
	viewBox="0 0 590.52734 189.8516"
	version="1.1"
>
	<path
		class="nelio"
		d="m 205.3262,15.40234 v 13.30078 66.39844 h 13.2012 V 28.70312 h 46.2988 c 3.8,0 6.9004,3.09844 6.9004,6.89844 v 59.5 h 13.3008 V 29.30273 c 0,-7.7 -6.2004,-13.90039 -13.9004,-13.90039 z m 93,0 v 13.30078 h 79.7012 V 15.40234 Z m 93,0 v 65.80079 c 0,7.69999 6.2004,13.89843 13.9004,13.89843 h 65.8008 V 81.80273 h -59.5 c -3.8,0 -6.9004,-3.10039 -6.9004,-6.90039 v -59.5 z m 92.9004,0 v 79.69922 h 13.3008 V 15.40234 Z m 40.4004,0 c -7.7,0 -13.8008,6.20077 -13.8008,13.80078 v 52.09961 c 0,7.7 6.2008,13.79883 13.8008,13.79883 h 52.0996 c 7.6,0 13.8008,-6.19883 13.8008,-13.79883 V 29.20312 c 0,-7.7 -6.2008,-13.80078 -13.8008,-13.80078 z m 6.2988,13.19922 h 39.4004 c 3.8,0 6.8008,3.10039 6.8008,6.90039 v 39.40039 c 0,3.8 -3.0008,6.80079 -6.8008,6.80079 h -39.4004 c -3.8,0 -6.7988,-3.00079 -6.7988,-6.80079 V 35.50195 c 0,-3.8 2.9988,-6.90039 6.7988,-6.90039 z m -232.5996,20 v 13.30078 h 79.7012 V 48.60156 Z m 0,33.20117 v 13.29883 h 79.7012 V 81.80273 Z"
	/>
	<path
		class="logo-circle"
		d="M 94.9258,0 C 42.4998,9e-5 10e-5,42.49978 10e-5,94.92579 c 0,52.42601 42.4997,94.92569 94.9257,94.92578 52.426,-4e-5 94.9258,-42.49973 94.9258,-94.92578 C 189.8516,42.49974 147.3519,4e-5 94.9258,0 Z"
	/>
	<path
		class="unlocker-text"
		d="m 323.9727,105.625 c -0.803,0 -1.5051,0.30005 -2.1074,0.90234 -0.6023,0.60229 -0.9023,1.30438 -0.9023,2.10743 v 62.25976 c 0,0.80306 0.2673,1.50709 0.8027,2.10938 0.6023,0.60229 1.337,0.90234 2.207,0.90234 0.8031,0 1.5071,-0.30005 2.1094,-0.90234 0.6023,-0.60229 0.9023,-1.30632 0.9023,-2.10938 v -62.25976 c 0,-0.80305 -0.3,-1.50514 -0.9023,-2.10743 -0.5354,-0.60229 -1.2394,-0.90234 -2.1094,-0.90234 z m 133.5176,0 c -0.87,0 -1.6067,0.30005 -2.209,0.90234 -0.5354,0.60229 -0.8027,1.30438 -0.8027,2.10743 v 62.25976 c 0,0.80306 0.2673,1.50709 0.8027,2.10938 0.6023,0.60229 1.339,0.90234 2.209,0.90234 0.87,0 1.5721,-0.30005 2.1074,-0.90234 0.6023,-0.60229 0.9043,-1.30632 0.9043,-2.10938 v -15.14062 l 7.5742,-6.44532 22.0371,23.49414 c 0.6693,0.73614 1.4387,1.10352 2.3086,1.10352 0.5354,0 1.1721,-0.26736 1.9082,-0.80273 0.7362,-0.53537 1.1036,-1.27209 1.1036,-2.20899 0,-0.86998 -0.3001,-1.63938 -0.9024,-2.30859 l -21.7969,-23.24219 20.6914,-17.61328 c 0.7362,-0.66922 1.1055,-1.43863 1.1055,-2.30859 0,-0.73615 -0.302,-1.40553 -0.9043,-2.00782 -0.6023,-0.66921 -1.3043,-1.0039 -2.1074,-1.0039 -0.7361,0 -1.4055,0.33469 -2.0078,1.0039 l -29.0098,24.94727 v -39.72656 c 0,-0.80305 -0.302,-1.50514 -0.9043,-2.10743 -0.5353,-0.60229 -1.2374,-0.90234 -2.1074,-0.90234 z m -170.9727,15.78125 c -2.4091,0 -4.8173,0.46935 -7.2265,1.40625 -2.3423,0.86998 -4.4831,2.10873 -6.4238,3.71484 -1.797,1.42517 -3.2944,3.05993 -4.5176,4.88672 v -5.49023 c 0,-0.80306 -0.302,-1.50513 -0.9043,-2.10742 -0.5354,-0.6023 -1.2375,-0.9043 -2.1074,-0.9043 -0.87,0 -1.6067,0.302 -2.209,0.9043 -0.6023,0.60229 -0.9024,1.30436 -0.9024,2.10742 v 44.9707 c 0,0.80306 0.2674,1.50708 0.8028,2.10938 0.6023,0.60229 1.3717,0.90234 2.3086,0.90234 0.803,0 1.5051,-0.30005 2.1074,-0.90234 0.6023,-0.6023 0.9043,-1.30632 0.9043,-2.10938 v -29.21094 c 0,-2.67686 0.8021,-5.11971 2.4082,-7.32812 1.6061,-2.20841 3.6816,-3.94724 6.2246,-5.21875 2.6099,-1.33843 5.3528,-2.00781 8.2305,-2.00781 3.2122,0 5.7897,0.66938 7.7304,2.00781 1.9408,1.27151 3.3449,3.01034 4.2149,5.21875 0.8699,2.20841 1.3047,4.65126 1.3047,7.32812 v 29.21094 c 0,0.80306 0.2693,1.50708 0.8046,2.10938 0.6023,0.60229 1.3717,0.90234 2.3086,0.90234 0.8031,0 1.5052,-0.30005 2.1075,-0.90234 0.6023,-0.6023 0.9043,-1.30632 0.9043,-2.10938 v -29.51172 c 0,-3.68068 -0.6041,-7.02564 -1.8086,-10.03711 -1.1377,-3.07838 -3.0439,-5.48856 -5.7207,-7.22851 -2.61,-1.80688 -6.1242,-2.71094 -10.5411,-2.71094 z m 77.9805,0 c -4.7514,0 -9.0678,1.17143 -12.9492,3.51367 -3.8145,2.34226 -6.8594,5.52182 -9.1348,9.53711 -2.2084,4.01529 -3.3125,8.599 -3.3125,13.75195 0,5.08604 1.1041,9.66975 3.3125,13.75196 2.2754,4.01528 5.3203,7.19485 9.1348,9.53711 3.8814,2.27532 8.1978,3.41211 12.9492,3.41211 4.8184,0 9.1347,-1.13679 12.9492,-3.41211 3.8146,-2.34226 6.8268,-5.52183 9.0352,-9.53711 2.2753,-4.08221 3.4121,-8.66592 3.4121,-13.75196 0,-5.15295 -1.1368,-9.73666 -3.4121,-13.75195 -2.2084,-4.01529 -5.2206,-7.19485 -9.0352,-9.53711 -3.8145,-2.34224 -8.1308,-3.51367 -12.9492,-3.51367 z m 59.8984,0 c -5.086,0 -9.537,1.23875 -13.3515,3.71484 -3.8145,2.40918 -6.7921,5.62144 -8.9336,9.63672 -2.1415,4.01529 -3.2129,8.4663 -3.2129,13.35157 0,5.08602 1.0387,9.66973 3.1133,13.75195 2.1415,4.01528 5.0864,7.19291 8.834,9.53515 3.8145,2.34226 8.1962,3.51368 13.1484,3.51368 3.6138,0 6.7933,-0.4674 9.5371,-1.4043 2.7438,-1.00382 4.8846,-2.14256 6.4238,-3.41406 1.6062,-1.33844 2.4102,-2.54254 2.4102,-3.61328 0,-0.80306 -0.2347,-1.43781 -0.7031,-1.90625 -0.4685,-0.53538 -1.1032,-0.80469 -1.9063,-0.80469 -0.9369,0 -1.7082,0.36933 -2.3105,1.10547 -0.6023,0.66921 -1.5391,1.37128 -2.8106,2.10742 -1.0707,0.60229 -2.3421,1.13702 -3.8144,1.60547 -1.4723,0.46845 -3.5458,0.70312 -6.2227,0.70312 -3.8814,0 -7.3284,-0.90405 -10.3398,-2.71094 -2.9446,-1.87379 -5.2528,-4.41667 -6.9258,-7.6289 -1.6061,-3.21223 -2.4102,-6.82456 -2.4102,-10.83984 0,-3.94837 0.8695,-7.49532 2.6094,-10.64063 1.74,-3.14531 4.1175,-5.6555 7.1289,-7.5293 3.0115,-1.8738 6.3911,-2.81054 10.1387,-2.81054 2.0076,0 3.8138,0.16734 5.4199,0.50195 1.673,0.26769 2.9445,0.63506 3.8145,1.10352 0.9369,0.40152 1.6389,0.90356 2.1074,1.50585 0.4684,0.53538 0.9378,1.00473 1.4062,1.40625 0.5354,0.33461 1.2048,0.50196 2.0079,0.50196 0.803,0 1.4378,-0.30201 1.9062,-0.9043 0.5354,-0.66921 0.8027,-1.3386 0.8027,-2.00781 0,-1.40536 -0.8347,-2.70948 -2.5078,-3.91406 -1.6061,-1.20459 -3.7489,-2.14134 -6.4258,-2.81055 -2.6768,-0.73613 -5.6544,-1.10547 -8.9336,-1.10547 z m 101.1192,0 c -4.0153,0 -7.8296,1.10409 -11.4434,3.3125 -3.5468,2.14149 -6.4571,5.22104 -8.7324,9.23633 -2.2084,4.01528 -3.3144,8.86636 -3.3144,14.55469 0,5.28679 1.106,9.90514 3.3144,13.85351 2.2084,3.94837 5.2533,7.02597 9.1348,9.23438 3.9483,2.2084 8.5321,3.3125 13.7519,3.3125 3.8145,0 7.3269,-0.86942 10.5391,-2.60938 3.2122,-1.80688 5.8224,-3.91505 7.8301,-6.32422 0.6692,-0.60229 1.0039,-1.30436 1.0039,-2.10742 0,-0.66921 -0.2674,-1.27127 -0.8028,-1.80664 -0.4684,-0.53537 -1.0705,-0.80469 -1.8066,-0.80469 -0.7361,0 -1.4382,0.30201 -2.1074,0.9043 -0.9369,1.20459 -2.143,2.376 -3.6153,3.51367 -1.4053,1.07074 -3.0441,1.94016 -4.9179,2.60938 -1.8738,0.66921 -3.9493,1.0039 -6.2246,1.0039 -4.283,0 -7.93,-0.93674 -10.9414,-2.81054 -3.0115,-1.8738 -5.3197,-4.41668 -6.9258,-7.62891 -1.5925,-3.18489 -2.3947,-6.73207 -2.4082,-10.64063 h 37.9433 c 0.8031,0 1.5052,-0.26736 2.1075,-0.80273 0.6022,-0.60229 0.9043,-1.30437 0.9043,-2.10742 -0.067,-3.88145 -0.769,-7.2957 -2.1075,-10.24024 -1.3384,-2.94454 -3.0792,-5.42008 -5.2207,-7.42773 -2.1415,-2.07456 -4.617,-3.61336 -7.4277,-4.61719 -2.7438,-1.07074 -5.5887,-1.60742 -8.5332,-1.60742 z m 59.791,0 c -2.8776,0 -5.4859,0.60205 -7.8281,1.80664 -2.2754,1.20459 -4.2508,2.77803 -5.9238,4.71875 -1.6731,1.94072 -3.0119,4.08158 -4.0157,6.42383 -0.074,0.17902 -0.13,0.35962 -0.1992,0.53906 v -8.9707 c 0,-0.80306 -0.302,-1.50513 -0.9043,-2.10742 -0.5354,-0.6023 -1.2374,-0.9043 -2.1074,-0.9043 -0.87,0 -1.6067,0.302 -2.209,0.9043 -0.6023,0.60229 -0.9043,1.30436 -0.9043,2.10742 v 44.9707 c 0,0.80306 0.2693,1.50708 0.8047,2.10938 0.6023,0.60229 1.3717,0.90234 2.3086,0.90234 0.8031,0 1.5051,-0.30005 2.1074,-0.90234 0.6023,-0.6023 0.9043,-1.30632 0.9043,-2.10938 v -24.79297 c 0,-2.34224 0.4347,-4.6524 1.3047,-6.92773 0.9369,-2.34225 2.1737,-4.45042 3.7129,-6.32422 1.5392,-1.8738 3.2473,-3.34527 5.1211,-4.41602 1.8738,-1.13766 3.7473,-1.70703 5.6211,-1.70703 1.1376,0 2.0397,0.16734 2.709,0.50196 0.7361,0.3346 1.4055,0.50195 2.0078,0.50195 0.7361,0 1.3728,-0.26736 1.9082,-0.80274 0.5353,-0.53537 0.8027,-1.30477 0.8027,-2.30859 0,-1.13767 -0.5694,-1.93976 -1.707,-2.4082 -1.1377,-0.53538 -2.3091,-0.80469 -3.5137,-0.80469 z m -377.0215,1.50586 c -0.87,0 -1.6067,0.302 -2.209,0.9043 -0.6023,0.60229 -0.9043,1.30436 -0.9043,2.10742 v 28.30859 c 0,6.62523 1.8408,11.67829 5.5215,15.1582 3.7476,3.47992 8.8007,5.21875 15.1582,5.21876 6.3576,-10e-6 11.4106,-1.73884 15.1582,-5.21876 3.7476,-3.47991 5.6211,-8.53297 5.6211,-15.1582 v -28.30859 c 0,-0.80306 -0.302,-1.50513 -0.9043,-2.10742 -0.5353,-0.6023 -1.2374,-0.9043 -2.1074,-0.9043 -0.9369,0 -1.7063,0.302 -2.3086,0.9043 -0.5354,0.60229 -0.8027,1.30436 -0.8027,2.10742 v 28.30859 c 0,4.81835 -1.3061,8.498 -3.916,11.04102 -2.5431,2.47609 -6.1227,3.71484 -10.7403,3.71484 -4.5506,0 -8.1303,-1.23875 -10.7402,-3.71484 -2.543,-2.54302 -3.8145,-6.22267 -3.8145,-11.04102 v -28.30859 c 0,-0.80306 -0.302,-1.50513 -0.9043,-2.10742 -0.5353,-0.6023 -1.2374,-0.9043 -2.1074,-0.9043 z m 156.2129,4.2168 c 3.6807,0 6.9603,0.90405 9.8379,2.71093 2.9445,1.80688 5.2528,4.31511 6.9258,7.52735 1.673,3.1453 2.5097,6.75959 2.5097,10.84179 0,4.08221 -0.8367,7.69649 -2.5097,10.8418 -1.673,3.14531 -3.9813,5.65355 -6.9258,7.52734 -2.8776,1.80688 -6.1572,2.71094 -9.8379,2.71094 -3.6807,0 -6.9929,-0.90405 -9.9375,-2.71094 -2.8776,-1.87379 -5.1858,-4.38203 -6.9258,-7.52734 -1.673,-3.14531 -2.5097,-6.75959 -2.5097,-10.8418 0,-4.0822 0.8367,-7.69649 2.5097,-10.84179 1.74,-3.21224 4.0482,-5.72047 6.9258,-7.52735 2.9446,-1.80688 6.2568,-2.71093 9.9375,-2.71093 z m 161.0176,0.0996 c 2.6769,0 5.2197,0.60206 7.6289,1.80664 2.4761,1.13766 4.5843,2.81112 6.3242,5.01953 1.74,2.14148 2.744,4.78437 3.0117,7.92969 v 0.80468 h -34.1757 c 0.2667,-1.44795 0.6472,-2.78929 1.1503,-4.01562 1.0708,-2.67686 2.4422,-4.85235 4.1153,-6.52539 1.7399,-1.73996 3.6481,-3.0114 5.7226,-3.81446 2.1415,-0.80305 4.215,-1.20507 6.2227,-1.20507 z"
	/>
		<path
		class="padlock-shank"
		d="m 112.13944,110.76966 c 1.55209,0.8961 3.14563,1.09981 4.78079,0.61122 1.60069,-0.42888 2.84908,-1.41935 3.74514,-2.97138 l 13.1308,-22.743199 c 3.65318,-6.327502 4.78718,-12.358455 3.402,-18.092849 -1.38509,-5.734344 -5.39066,-10.514291 -12.01662,-14.339791 -6.62596,-3.8255 -12.76831,-4.904453 -18.42703,-3.236859 -5.59896,1.702094 -10.225043,5.716897 -13.878228,12.044399 l -2.846358,4.930037 c -0.896065,1.55203 -1.129641,3.128395 -0.700717,4.729078 0.394367,1.660336 1.367641,2.938575 2.919645,3.834625 1.552005,0.89605 3.145629,1.099811 4.780793,0.611225 1.600607,-0.428933 2.848991,-1.419398 3.745055,-2.971428 l 2.84636,-4.930037 c 2.1023,-3.641299 4.47634,-5.892054 7.12194,-6.752356 2.61121,-0.800557 5.52854,-0.270315 8.75197,1.590735 3.2831,1.8955 5.23085,4.174108 5.84307,6.835715 0.57784,2.721352 -0.18444,5.902657 -2.28675,9.543956 l -13.13079,22.743199 c -0.89607,1.55203 -1.12964,3.1284 -0.70072,4.72908 0.39446,1.66039 1.36764,2.93858 2.91965,3.83463 z"
	/>
	<path
		class="padlock-body"
		d="m 79.789852,79.079981 c -2.999912,-1.732 -6.808366,-0.711565 -8.540371,2.288356 L 49.873506,118.39261 c -1.732005,2.99992 -0.712471,6.81004 2.287441,8.54204 l 45.792738,26.43845 c 2.999915,1.732 6.810985,0.71083 8.542985,-2.28909 l 21.37598,-37.02427 c 1.732,-2.99992 0.70985,-6.80931 -2.29006,-8.54131 z m 15.568087,25.914079 a 8.8195423,8.8195423 z"
	/>
	<path
		class="dinamic-lines"
		d="M 82.6875 37.654297 A 4.0004 4.0004 0 0 0 78.800781 41.761719 L 78.992188 56.835938 A 4.0004 4.0004 0 1 0 86.992188 56.734375 L 86.798828 41.660156 A 4.0004 4.0004 0 0 0 82.6875 37.654297 z M 59.800781 45.890625 A 4.0004 4.0004 0 0 0 56.578125 52.386719 L 65.824219 64.294922 A 4.0004 4.0004 0 1 0 72.142578 59.388672 L 62.896484 47.480469 A 4.0004 4.0004 0 0 0 59.800781 45.890625 z M 46.677734 66.722656 A 4.0004 4.0004 0 0 0 45.705078 74.634766 L 60.410156 77.958984 A 4.0007399 4.0007399 0 1 0 62.173828 70.154297 L 47.46875 66.832031 A 4.0004 4.0004 0 0 0 46.677734 66.722656 z "
	/>
</svg>
